<svg xmlns="http://www.w3.org/2000/svg" width="118" height="32" fill="none"><g clip-path="url(#a)"><mask id="b" width="118" height="32" x="0" y="0" maskUnits="userSpaceOnUse" style="mask-type:luminance"><path fill="#fff" d="M118 0H0v32h118z"/></mask><g mask="url(#b)"><mask id="c" width="32" height="32" x="0" y="0" maskUnits="userSpaceOnUse" style="mask-type:luminance"><path fill="#fff" d="M32 0H0v32h32z"/></mask><g mask="url(#c)"><path fill="#fff" fill-rule="evenodd" d="M4 0C1.79 0 0 1.79 0 4v24c0 2.21 1.79 4 4 4h24c2.21 0 4-1.79 4-4V4c0-2.21-1.79-4-4-4zm19.72 8h-4.435a.287.287 0 0 0-.28.285v1.43c0 .155.125.28.28.28h1.32l-12.6 12v1.72c0 .155.125.28.28.28h5.435a.28.28 0 0 0 .28-.28V22.28a.28.28 0 0 0-.28-.28h-2.835L22 11.42v1.295c0 .155.125.28.28.28h1.44a.283.283 0 0 0 .275-.285V8.28a.28.28 0 0 0-.28-.28zm-7 1.995H12L10 10v2.72c0 .155-.12.28-.275.28h-1.43a.28.28 0 0 1-.28-.28V8.285a.28.28 0 0 1 .28-.28h8.43c.15 0 .275.125.275.28v1.43a.28.28 0 0 1-.28.28M16.28 22H22v-2.74a.28.28 0 0 1 .28-.28h1.435a.28.28 0 0 1 .28.28v4.46a.28.28 0 0 1-.28.28H16.28a.28.28 0 0 1-.28-.28v-1.435a.28.28 0 0 1 .28-.28z" clip-rule="evenodd"/></g><mask id="d" width="78" height="16" x="40" y="8" maskUnits="userSpaceOnUse" style="mask-type:luminance"><path fill="#fff" d="M118 8.73H40v14.54h78z"/></mask><g fill="#fff" mask="url(#d)"><path d="M40 23.045V21.22l6.77-6.355h-4.75v1.25h-1.915v-2.99h9.215v1.825l-6.715 6.315h4.915v-1.27h1.915v3.045h-9.43zM55.243 23.27c-.995 0-1.86-.225-2.62-.665a4.75 4.75 0 0 1-1.775-1.835q-.645-1.171-.645-2.695-.001-1.524.635-2.695a4.65 4.65 0 0 1 1.765-1.835c.755-.44 1.62-.665 2.6-.665s1.845.225 2.6.665a4.65 4.65 0 0 1 1.765 1.835q.636 1.171.635 2.695.001 1.524-.635 2.695a4.66 4.66 0 0 1-1.755 1.835c-.745.44-1.605.665-2.57.665m0-1.725q.894-.001 1.585-.445a3 3 0 0 0 1.08-1.22c.26-.515.385-1.115.385-1.805s-.125-1.29-.385-1.805a3 3 0 0 0-1.1-1.22 3 3 0 0 0-1.61-.445c-.6 0-1.145.15-1.605.445a3.1 3.1 0 0 0-1.095 1.22q-.396.771-.395 1.805-.001 1.034.395 1.805c.265.515.635.925 1.11 1.22q.719.444 1.625.445zM66.29 23.27c-.995 0-1.86-.225-2.62-.665a4.75 4.75 0 0 1-1.775-1.835q-.645-1.171-.645-2.695-.001-1.524.635-2.695a4.65 4.65 0 0 1 1.765-1.835c.755-.44 1.62-.665 2.6-.665s1.845.225 2.6.665a4.65 4.65 0 0 1 1.765 1.835q.636 1.171.635 2.695.001 1.524-.635 2.695a4.66 4.66 0 0 1-1.755 1.835c-.745.44-1.605.665-2.57.665m0-1.725q.894-.001 1.585-.445a3 3 0 0 0 1.08-1.22q.39-.771.39-1.805t-.39-1.805a3 3 0 0 0-1.1-1.22 3 3 0 0 0-1.605-.445c-.595 0-1.145.15-1.61.445a3.1 3.1 0 0 0-1.095 1.22q-.396.771-.395 1.805-.001 1.034.395 1.805c.265.515.635.925 1.11 1.22q.719.444 1.625.445zM87.025 13.975c-.685-.735-1.615-1.1-2.805-1.1-.805 0-1.5.2-2.07.595-.565.385-.995.945-1.3 1.67-.17-.46-.39-.85-.685-1.165-.685-.735-1.615-1.1-2.805-1.1-.805 0-1.5.2-2.07.595-.395.275-.72.635-.99 1.07l-.09-1.425h-1.765v9.92h1.885V17.88q0-1.545.675-2.4c.45-.57 1.08-.85 1.885-.85.48.015.895.115 1.26.295.365.185.645.515.85.985s.31 1.15.31 2.055v5.08h1.885V17.89q0-1.545.675-2.4c.45-.57 1.08-.85 1.885-.85.48.015.89.115 1.245.295.355.185.645.515.85.985.21.47.32 1.15.32 2.055v5.08h1.86V17.38c.015-1.52-.32-2.645-1-3.385l-.01-.01zM90.252 11.52c-.375 0-.695-.14-.97-.425a1.37 1.37 0 0 1-.415-.985c0-.375.135-.715.415-.985.275-.27.595-.4.97-.4s.715.13.985.4.4.59.4.985-.13.7-.4.985c-.27.28-.59.425-.985.425m-.95 11.515.04-9.92h1.865l-.02 9.92zM100.435 13.975c-.685-.735-1.615-1.1-2.805-1.1-.805 0-1.5.2-2.07.595-.395.275-.72.635-.99 1.07l-.09-1.425h-1.765v9.92H94.6V17.88q0-1.545.675-2.4c.45-.57 1.08-.85 1.885-.85.48.015.895.115 1.26.295.365.185.645.515.85.985s.31 1.15.31 2.055v5.08h1.885V17.37c0-1.52-.34-2.645-1.02-3.385h-.01zM105.678 12.22q-.001-.893.32-1.32c.21-.28.54-.43.97-.43q.217 0 .525.09.306.09.725.285l.695-1.45a6.4 6.4 0 0 0-1.095-.405 3.7 3.7 0 0 0-.995-.15c-1.02 0-1.78.27-2.28.8-.5.535-.755 1.325-.755 2.37v1.095h-1.765v1.565h1.765v8.35h1.885v-8.35h2.735v-1.565h-2.735v-.895h.01zM113.04 23.27c-.995 0-1.86-.225-2.62-.665a4.75 4.75 0 0 1-1.775-1.835Q108 19.599 108 18.075q-.001-1.524.635-2.695a4.65 4.65 0 0 1 1.765-1.835c.755-.44 1.62-.665 2.6-.665s1.845.225 2.6.665a4.65 4.65 0 0 1 1.765 1.835q.636 1.171.635 2.695.001 1.524-.635 2.695a4.66 4.66 0 0 1-1.755 1.835c-.745.44-1.605.665-2.57.665m0-1.725q.894-.001 1.585-.445a3 3 0 0 0 1.08-1.22c.26-.515.385-1.115.385-1.805q-.001-1.034-.385-1.805a2.96 2.96 0 0 0-1.105-1.22 3 3 0 0 0-1.605-.445c-.595 0-1.145.15-1.61.445a3.1 3.1 0 0 0-1.095 1.22q-.396.771-.395 1.805-.001 1.034.395 1.805c.265.515.635.925 1.11 1.22q.719.444 1.625.445h.015"/></g></g></g><defs><clipPath id="a"><path fill="#fff" d="M0 0h118v32H0z"/></clipPath></defs></svg>