<svg xmlns="http://www.w3.org/2000/svg" width="430" height="286" fill="none"><rect width="430" height="286" fill="#231f20" rx="5"/><path fill="#eb1000" d="m71.797 151.906 8.147-19.411h5.71l8.093 19.411h-6.062l-5.106-12.894-3.365 8.461h4.005l1.596 4.433zm29.436.289c-4.555 0-8.409-2.578-8.409-7.705s3.744-7.967 7.631-7.967c.613 0 1.218.055 1.858.206v-4.811h5.044v19.122c-1.163.523-3.626 1.162-6.117 1.162zm-.117-4.172c.433 0 .839-.055 1.19-.172v-7.039a3.2 3.2 0 0 0-1.218-.233c-1.679 0-3.22 1.244-3.22 3.821s1.569 3.623 3.248 3.623m15.227 4.138c-4.232 0-7.775-2.839-7.775-7.822s3.536-7.823 7.775-7.823 7.803 2.839 7.803 7.823c0 4.983-3.564 7.822-7.803 7.822m0-4.2c1.479 0 2.787-1.162 2.787-3.622s-1.308-3.623-2.787-3.623-2.752 1.162-2.752 3.623c0 2.46 1.273 3.622 2.752 3.622m15.048 4.234c-1.975 0-4.465-.405-6.034-1.127v-19.15h5.043v4.777c.64-.117 1.273-.206 1.886-.206 3.97 0 7.631 2.605 7.631 7.65 0 5.334-3.916 8.056-8.526 8.056m-.984-11.362v7.011q.477.174 1.129.172c1.713 0 3.337-1.217 3.337-3.822 0-2.433-1.569-3.595-3.248-3.595-.461 0-.839.09-1.218.234m10.672 3.478c0-4.839 3.393-7.795 7.452-7.795 3.798 0 7.28 2.434 7.28 7.328 0 .666-.027 1.306-.117 1.938h-9.482c.551 1.712 2.058 2.523 3.943 2.523 1.535 0 2.959-.378 4.555-1.073v3.856c-1.479.757-3.248 1.073-5.078 1.073-4.816 0-8.553-2.894-8.553-7.85m5.071-1.677h4.934c-.261-1.65-1.362-2.316-2.491-2.316-1.128 0-2.057.694-2.436 2.316z"/><path fill="#fff" d="M169.703 136.131h-.565v5.637h-5.642v.57h5.642v5.637h.565v-5.637h5.642v-.57h-5.642z"/><path fill="#c190ff" d="M207.072 132.097c5.883 0 10.699 4.852 10.699 10.647 0 5.794-4.63 10.489-10.424 10.64h-15.289l9.241-4.915h-18.276l16.604-8.818h-9.138l11.147-5.919c2.002-1.037 3.791-1.635 5.436-1.635M233.337 133.485c4.218 0 7.824 2.316 8.34 6.269h-4.039c-.255-2.056-2.03-3.011-4.349-3.011-2.986 0-4.707.825-4.707 2.186 0 3.574 13.384-.461 13.384 7.451 0 4.729-4.377 5.911-8.567 5.911-5.278 0-8.979-2.571-9.083-6.887h3.964c.075 2.337 2.112 3.622 5.119 3.622 2.752 0 4.706-.742 4.706-2.646 0-3.313-13.383.282-13.383-7.3 0-3.884 4.012-5.602 8.622-5.602zM306.569 144.153c0 3.21 2.133 4.756 4.892 4.756s4.893-1.539 4.893-4.756v-10.256h3.729v10.256c0 5.086-3.523 8.145-8.622 8.145-5.098 0-8.621-3.059-8.621-8.145v-10.256h3.729zM330.622 133.485c4.218 0 7.824 2.316 8.34 6.269h-4.039c-.255-2.056-2.03-3.011-4.349-3.011-2.986 0-4.706.825-4.706 2.186 0 3.574 13.383-.461 13.383 7.451 0 4.729-4.376 5.911-8.567 5.911-5.277 0-8.979-2.571-9.082-6.887h3.963c.076 2.337 2.112 3.622 5.119 3.622 2.752 0 4.707-.742 4.707-2.646 0-3.313-13.383.282-13.383-7.3 0-3.884 4.011-5.602 8.621-5.602zM259.144 137.19h-11.787v3.931h10.322v3.293h-10.322v4.193h11.911v3.292h-15.647v-17.995h15.516v3.293zM271.903 147.39l5.016-13.493h5.504v17.996h-3.653v-12.62l-4.734 12.62h-4.273l-4.734-12.593v12.593h-3.654v-17.996h5.505l5.016 13.493z"/><path fill="#c190ff" fill-rule="evenodd" d="M294.341 133.897c3.626 0 6.791 1.183 6.791 4.936 0 2.289-1.08 3.313-2.724 3.78h2.263v9.28h-3.729v-6.578h-8.209v6.578h-3.729v-17.996zm-5.608 8.125h5.608c1.803 0 3.035-.667 3.035-2.419s-1.239-2.42-3.035-2.42h-5.608v4.839" clip-rule="evenodd"/><path fill="#c190ff" d="M344.647 141.122h10.088v-7.225h3.729v17.996h-3.729v-7.479h-10.088v7.479h-3.729v-17.996h3.729z"/></svg>