<svg xmlns="http://www.w3.org/2000/svg" width="430" height="288" fill="none"><mask id="a" width="430" height="288" x="0" y="0" maskUnits="userSpaceOnUse" style="mask-type:luminance"><path fill="#fff" d="M427.611 0H2.389A2.4 2.4 0 0 0 0 2.408v283.184C0 286.922 1.07 288 2.389 288H427.61a2.4 2.4 0 0 0 2.389-2.408V2.408C430 1.078 428.93 0 427.611 0"/></mask><g mask="url(#a)"><path fill="#231f20" d="M427.611 0H2.389A2.4 2.4 0 0 0 0 2.408v283.184C0 286.922 1.07 288 2.389 288H427.61a2.4 2.4 0 0 0 2.389-2.408V2.408C430 1.078 428.93 0 427.611 0"/><path fill="#c190ff" d="M337.627 240.883c-42.368 0-72.772-32.031-72.772-76.321 0-44.092 30.404-76.32 72.772-76.32 41.977 0 72.576 32.03 72.576 76.32 0 25.506-10.2 46.86-26.676 60.503 11.573 5.734 17.653 17.004 17.653 35.195v7.316h-30.992v-3.955c0-16.806-10.003-22.738-25.499-22.738zm0-29.461c23.735 0 39.819-19.179 39.819-46.86s-16.084-46.663-39.819-46.663c-23.734 0-40.21 18.982-40.21 46.663s16.28 46.86 40.21 46.86M113.551 238.51l58.453-147.896h33.934l58.649 147.896h-34.718l-10.985-28.472h-60.022l-10.985 28.472zm56.295-56.944h38.053l-19.026-49.035zM126.511 90.614v28.67h-66.3v29.46h62.18v28.67h-62.18v61.096H28.044V90.614z"/><path fill="#231f20" d="M215.372 81.046h-6.474l.162 12.368q1.457 111.318 2.913 222.635l.162 12.368.162-12.368q1.457-111.317 2.913-222.635zM109.368 81.046h-6.473l.161 12.368 2.914 222.634.161 12.369.162-12.369q1.457-111.316 2.913-222.634zM3.365 81.046H-3.11l.161 12.368L-.034 316.05l.162 12.368.162-12.368Q1.746 204.732 3.203 93.414zM202.119 81.046h-6.474l.162 12.368 2.913 222.634.162 12.369.161-12.369zM96.119 81.046h-6.475l.162 12.368L92.72 316.05l.162 12.368.161-12.368 2.914-222.635zM188.872 81.046h-6.474l.162 12.368q1.457 111.318 2.913 222.635l.162 12.368.162-12.368 2.914-222.635zM82.865 81.045H76.39l.162 12.369 2.913 222.634.162 12.369.162-12.369 2.913-222.634zM175.619 81.046h-6.474l.162 12.368 2.913 222.635.162 12.368.162-12.368 2.913-222.635zM69.619 81.046h-6.474l.161 12.368 2.914 222.634.162 12.369.161-12.369 2.914-222.634zM208.747 81.046h-6.474l.162 12.368 2.913 222.635.162 12.368.162-12.368q1.457-111.317 2.913-222.635zM102.744 81.045h-6.475l.162 12.37 2.914 222.633.162 12.369.161-12.369 2.914-222.634zM195.494 81.046h-6.474l.162 12.368 2.913 222.635.161 12.368.162-12.368zM89.49 81.045h-6.474l.162 12.37 2.913 222.633.162 12.369.162-12.369 2.913-222.634zM182.247 81.046h-6.474l.162 12.368 2.913 222.634.162 12.369.162-12.369q1.457-111.316 2.913-222.634zM76.24 81.045h-6.474l.161 12.37 2.914 222.633.162 12.369.162-12.369 2.912-222.634zM168.994 81.046h-6.474l.162 12.368 2.913 222.635.162 12.368.161-12.368zM62.994 81.046H56.52l.161 12.368 2.914 222.634.162 12.369.161-12.369 2.914-222.634zM162.369 81.046h-6.474l.162 12.368q1.456 111.318 2.913 222.634l.161 12.369.162-12.369zM56.365 81.045H49.89l.162 12.37 2.913 222.633.162 12.369.161-12.369 2.914-222.634zM149.118 81.045h-6.473l.161 12.369 2.914 222.634.161 12.369.162-12.369 2.914-222.634zM43.115 81.045H36.64l.161 12.37 2.914 222.633.162 12.369.161-12.369 2.914-222.634zM135.865 81.045h-6.474l.162 12.369 2.913 222.634.162 12.369.162-12.369 2.913-222.634zM29.865 81.046H23.39l.161 12.368 2.914 222.634.162 12.369.162-12.369 2.913-222.634zM122.619 81.046h-6.474l.162 12.368q1.456 111.318 2.913 222.634l.161 12.369.162-12.369zM16.615 81.046H10.14l.162 12.368q1.456 111.318 2.913 222.635l.162 12.368.162-12.368q1.456-111.317 2.913-222.635zM155.744 81.045h-6.474l.161 12.369 2.914 222.634.161 12.369.162-12.369 2.914-222.634zM49.74 81.046h-6.474l.162 12.368q1.456 111.318 2.913 222.634l.162 12.369.162-12.369zM142.493 81.045h-6.473l.161 12.369 2.914 222.634.161 12.369.162-12.369 2.913-222.634zM36.49 81.046h-6.474l.161 12.368 2.914 222.634.162 12.369.161-12.369 2.914-222.634zM129.244 81.045h-6.474l.161 12.37 2.914 222.633.161 12.369.162-12.369 2.914-222.634zM23.24 81.046h-6.474l.162 12.368q1.456 111.318 2.913 222.635l.162 12.368.162-12.368q1.456-111.317 2.913-222.635zM115.993 81.045h-6.473l.161 12.369 2.914 222.634.161 12.369.162-12.369 2.913-222.634zM9.99 81.046H3.516l.161 12.368L6.591 316.05l.162 12.368.162-12.368Q8.37 204.732 9.828 93.414zM394.256 81.046h-6.475l.162 12.368 2.913 222.635.162 12.368.162-12.368 2.914-222.635zM381.001 81.046h-6.474l.162 12.368 2.913 222.635.162 12.368.162-12.368 2.913-222.635zM367.748 81.046h-6.475l.162 12.368 2.914 222.635.162 12.368.161-12.368zM354.501 81.046h-6.474l.162 12.368 2.913 222.635.162 12.368.162-12.368 2.914-222.635zM387.626 81.046h-6.474l.162 12.368 2.913 222.634.162 12.369.162-12.369 2.914-222.634zM374.377 81.046h-6.475l.162 12.368 2.914 222.635.162 12.368.162-12.368 2.913-222.635zM361.127 81.046h-6.475l.162 12.368 2.914 222.635.161 12.368.162-12.368 2.914-222.635zM347.872 81.045h-6.474l.162 12.369 2.913 222.634.162 12.369.162-12.369 2.914-222.634zM288.248 81.046h-6.475l.162 12.368q1.457 111.318 2.913 222.635l.162 12.368.162-12.368 2.914-222.635zM341.252 81.046h-6.475l.162 12.368 2.914 222.635.162 12.368.162-12.368 2.913-222.635zM281.622 81.046h-6.474l.162 12.368q1.457 111.318 2.913 222.635l.162 12.368.162-12.368 2.914-222.635zM434.002 81.045h-6.475l.162 12.37 2.914 222.633.162 12.369.161-12.369 2.914-222.634zM328.002 81.046h-6.475l.162 12.368 2.914 222.635.161 12.368.162-12.368 2.914-222.635zM268.373 81.046h-6.475l.162 12.368 2.914 222.635.162 12.368.161-12.368zM420.751 81.046h-6.474l.162 12.368 2.913 222.634.162 12.369.162-12.369 2.914-222.634zM314.747 81.046h-6.474l.162 12.368q1.457 111.318 2.913 222.635l.162 12.368.162-12.368q1.457-111.317 2.913-222.635zM255.122 81.046h-6.474l.162 12.368q1.457 111.318 2.913 222.635l.162 12.368.162-12.368 2.914-222.635zM407.501 81.045h-6.474l.162 12.369 2.913 222.634.162 12.369.162-12.369 2.913-222.634zM301.498 81.046h-6.475l.162 12.368 2.914 222.635.162 12.368.161-12.368zM241.872 81.046h-6.474l.162 12.368 2.913 222.635.162 12.368.162-12.368q1.457-111.317 2.913-222.635zM221.997 81.046h-6.474l.162 12.368q1.457 111.318 2.913 222.635l.162 12.368.162-12.368 2.914-222.635zM334.627 81.046h-6.475l.162 12.368 2.914 222.635.162 12.368.161-12.368 2.914-222.635zM275.002 81.046h-6.475l.162 12.368 2.914 222.635.162 12.368.161-12.368 2.914-222.635zM427.377 81.046h-6.475l.162 12.368 2.914 222.635.161 12.368.162-12.368 2.914-222.635zM321.372 81.046h-6.474l.162 12.368q1.457 111.318 2.913 222.635l.162 12.368.162-12.368 2.914-222.635zM261.748 81.046h-6.475l.162 12.368 2.914 222.635.161 12.368.162-12.368zM414.126 81.046h-6.474l.162 12.368 2.913 222.635.162 12.368.162-12.368 2.913-222.635zM308.127 81.046h-6.475l.162 12.368 2.914 222.635.162 12.368.161-12.368 2.914-222.635zM248.497 81.046h-6.474l.162 12.368q1.457 111.318 2.913 222.635l.162 12.368.162-12.368 2.914-222.635zM228.623 81.046h-6.475l.162 12.368 2.914 222.635.161 12.368.162-12.368zM400.877 81.046h-6.475l.162 12.368 2.914 222.635.162 12.368.161-12.368 2.914-222.635zM294.873 81.046h-6.475l.162 12.368 3.075 235.003.162-12.368zM235.248 81.046h-6.475l.162 12.368 3.076 235.003.161-12.368z"/><path fill="#231f20" d="M215.372 81.046h-6.474l.162 12.368q1.457 111.318 2.913 222.635l.162 12.368.162-12.368q1.457-111.317 2.913-222.635zM215.372 81.044h-6.474l.162-12.368q1.457-111.318 2.913-222.635l.162-12.369.162 12.369q1.457 111.318 2.913 222.635zM109.368 81.044h-6.473l.161-12.368 2.914-222.635.161-12.369.162 12.369q1.457 111.318 2.913 222.635zM3.365 81.044H-3.11l.161-12.368L-.034-153.96l.162-12.369.162 12.369Q1.746-42.641 3.203 68.676zM202.119 81.044h-6.474l.162-12.368 2.913-222.635.162-12.369.161 12.369 2.914 222.635zM96.119 81.044h-6.475l.162-12.369L92.72-153.96l.162-12.368.161 12.368 2.914 222.635zM188.869 81.044h-6.474l.161-12.368q1.457-111.318 2.913-222.635l.162-12.369.162 12.369zM82.865 81.044H76.39l.162-12.368q1.456-111.318 2.913-222.635l.162-12.369.162 12.369q1.456 111.318 2.913 222.635.08 6.184.162 12.368M175.619 81.044h-6.474l.162-12.368 2.913-222.635.162-12.369.162 12.369 2.913 222.635zM69.619 81.044h-6.474l.161-12.368L66.22-153.96l.162-12.369.161 12.369 2.914 222.635zM208.747 81.044h-6.474l.162-12.368 2.913-222.635.162-12.369.162 12.369q1.457 111.318 2.913 222.635zM102.744 81.044h-6.475l.162-12.368 2.914-222.635.162-12.369.161 12.369 2.914 222.635zM195.494 81.044h-6.474l.162-12.368 2.913-222.635.161-12.369.162 12.369zM89.49 81.044h-6.474l.162-12.368Q84.634-42.642 86.09-153.96l.162-12.369.162 12.369Q87.87-42.641 89.328 68.676zM182.247 81.044h-6.474l.162-12.368q1.457-111.318 2.913-222.635l.162-12.369.162 12.369q1.457 111.318 2.913 222.635zM76.24 81.044h-6.474l.161-12.368 2.914-222.635.162-12.369.162 12.369 2.912 222.635zM168.994 81.044h-6.474l.162-12.368 2.913-222.635.162-12.369.161 12.369zM62.994 81.044H56.52l.161-12.368 2.914-222.635.162-12.369.161 12.369 2.914 222.635zM162.369 81.044h-6.474l.162-12.368q1.456-111.318 2.913-222.635l.161-12.369.162 12.369 2.914 222.635zM56.365 81.044H49.89l.162-12.368q1.456-111.318 2.913-222.635l.162-12.369.161 12.369 2.914 222.635zM149.118 81.044h-6.473l.161-12.368 2.914-222.635.161-12.369.162 12.369 2.914 222.635zM43.115 81.044H36.64l.161-12.368 2.914-222.635.162-12.369.161 12.369 2.914 222.635zM135.865 81.044h-6.474l.162-12.368 2.913-222.635.162-12.369.162 12.369 2.913 222.635zM29.865 81.044H23.39l.161-12.368 2.914-222.635.162-12.369.162 12.369q1.456 111.318 2.913 222.635zM122.619 81.044h-6.474l.162-12.368q1.456-111.318 2.913-222.635l.161-12.369.162 12.369 2.914 222.635zM16.615 81.044H10.14l.162-12.368q1.456-111.318 2.913-222.635l.162-12.369.162 12.369q1.456 111.318 2.913 222.635zM155.744 81.044h-6.474l.161-12.368 2.914-222.635.161-12.369.162 12.369 2.914 222.635zM49.74 81.044h-6.474l.162-12.368Q44.884-42.642 46.34-153.96l.162-12.369.162 12.369zM142.493 81.044h-6.473l.161-12.368 2.914-222.635.161-12.369.162 12.369q1.457 111.318 2.913 222.635zM36.49 81.044h-6.474l.161-12.368 2.914-222.635.162-12.369.161 12.369 2.914 222.635zM129.244 81.044h-6.474l.161-12.368 2.914-222.635.161-12.369.162 12.369 2.914 222.635zM23.24 81.044h-6.474l.162-12.369 3.075-235.003.162 12.368Q21.62-42.642 23.078 68.675zM115.993 81.044h-6.473l.161-12.368 2.914-222.635.161-12.369.162 12.369q1.457 111.318 2.913 222.635zM9.99 81.044H3.516l.161-12.369L6.591-153.96l.162-12.368.162 12.368Q8.37-42.642 9.828 68.675zM394.256 81.044h-6.475l.162-12.368 2.913-222.635.162-12.369.162 12.369zM381.001 81.044h-6.474l.162-12.368 2.913-222.635.162-12.369.162 12.369 2.913 222.635zM367.748 81.044h-6.475l.162-12.368 2.914-222.635.162-12.369.161 12.369zM354.501 81.044h-6.474a6490615 6490615 0 0 0 3.075-235.004l.162-12.368.162 12.368 2.914 222.635zM387.626 81.044h-6.474l.162-12.368 2.913-222.635.162-12.369.162 12.369 2.914 222.635zM374.377 81.044h-6.475l.162-12.368 2.914-222.635.162-12.369.162 12.369 2.913 222.635zM361.127 81.044h-6.475l.162-12.368 2.914-222.635.161-12.369.162 12.369 2.914 222.635zM347.872 81.044h-6.474l.162-12.368q1.457-111.318 2.913-222.635l.162-12.369.162 12.369 2.914 222.635zM288.248 81.044h-6.475l.162-12.368q1.457-111.318 2.913-222.635l.162-12.369.162 12.369zM341.252 81.044h-6.475l.162-12.369 2.914-222.634.162-12.369.162 12.369 2.913 222.634zM281.622 81.044h-6.474l.162-12.368q1.457-111.318 2.913-222.635l.162-12.369.162 12.369 2.914 222.635zM434.002 81.044h-6.475l.162-12.368 2.914-222.635.162-12.369.161 12.369 2.914 222.635zM328.002 81.044h-6.475l.162-12.368 2.914-222.635.161-12.369.162 12.369 2.914 222.635zM268.373 81.044h-6.475l.162-12.368 2.914-222.635.162-12.369.161 12.369zM420.751 81.044h-6.474l.162-12.368 2.913-222.635.162-12.369.162 12.369 2.914 222.635zM314.747 81.044h-6.474l.162-12.368q1.457-111.318 2.913-222.635l.162-12.369.162 12.369q1.457 111.318 2.913 222.635zM255.122 81.044h-6.474l.162-12.368q1.457-111.318 2.913-222.635l.162-12.369.162 12.369zM407.501 81.044h-6.474l.162-12.368 2.913-222.635.162-12.369.162 12.369 2.913 222.635zM301.498 81.044h-6.475l.162-12.368 2.914-222.635.162-12.369.161 12.369zM241.872 81.044h-6.474l.162-12.368 2.913-222.635.162-12.369.162 12.369q1.457 111.318 2.913 222.635zM221.997 81.044h-6.474l.162-12.368q1.457-111.318 2.913-222.635l.162-12.369.162 12.369zM334.627 81.044h-6.475l.162-12.368 2.914-222.635.162-12.369.161 12.369 2.914 222.635zM275.002 81.044h-6.475l.162-12.368 2.914-222.635.162-12.369.161 12.369 2.914 222.635zM427.377 81.044h-6.475l.162-12.368 2.914-222.635.161-12.369.162 12.369 2.914 222.635zM321.372 81.044h-6.474l.162-12.368q1.457-111.318 2.913-222.635l.162-12.369.162 12.369zM261.748 81.044h-6.475l.162-12.368 2.914-222.635.161-12.369.162 12.369zM414.126 81.044h-6.474l.162-12.368 2.913-222.635.162-12.369.162 12.369 2.913 222.635zM308.127 81.044h-6.475l.162-12.368 2.914-222.635.162-12.369.161 12.369 2.914 222.635zM248.497 81.044h-6.474l.162-12.368q1.457-111.318 2.913-222.635l.162-12.369.162 12.369 2.914 222.635zM228.623 81.044h-6.475l.162-12.368 2.914-222.635.161-12.369.162 12.369zM400.877 81.044h-6.475l.162-12.369 2.914-222.634.162-12.369.161 12.369 2.914 222.634zM294.873 81.044h-6.475l.162-12.368 3.075-235.004.162 12.369zM235.248 81.044h-6.475l.162-12.368 2.914-222.635.162-12.369.161 12.369 2.914 222.635z"/><path fill="#231f20" d="M215.372 81.044h-6.474l.162-12.368q1.457-111.318 2.913-222.635l.162-12.369.162 12.369q1.457 111.318 2.913 222.635z"/><path fill="#eb1000" d="m65.457 69.356 8.498-20.431h5.957l8.44 20.431H82.03l-5.325-13.572-3.51 8.906h4.177l1.665 4.666zm30.704.304c-4.75 0-8.77-2.713-8.77-8.11 0-5.398 3.904-8.385 7.96-8.385.638 0 1.27.057 1.938.217v-5.065h5.26v20.127c-1.213.55-3.782 1.223-6.38 1.223zm-.121-4.391c.452 0 .875-.059 1.241-.181v-7.409a3.3 3.3 0 0 0-1.27-.246c-1.752 0-3.36 1.31-3.36 4.023s1.638 3.813 3.389 3.813m15.883 4.355c-4.414 0-8.11-2.988-8.11-8.233s3.689-8.234 8.11-8.234 8.139 2.988 8.139 8.234c0 5.245-3.718 8.233-8.139 8.233m0-4.42c1.543 0 2.907-1.223 2.907-3.813s-1.364-3.813-2.907-3.813-2.871 1.223-2.871 3.813 1.328 3.812 2.871 3.812m15.697 4.456c-2.06 0-4.658-.427-6.295-1.187V48.317h5.261v5.029c.668-.124 1.328-.218 1.967-.218 4.141 0 7.96 2.743 7.96 8.053 0 5.614-4.084 8.479-8.893 8.479m-1.027-11.96v7.38q.498.183 1.177.181c1.788 0 3.481-1.28 3.481-4.022 0-2.562-1.636-3.784-3.387-3.784-.481 0-.876.094-1.271.246m11.132 3.661c0-5.093 3.539-8.204 7.774-8.204 3.961 0 7.593 2.562 7.593 7.713 0 .701-.029 1.374-.122 2.04h-9.89c.574 1.802 2.146 2.655 4.112 2.655 1.601 0 3.086-.398 4.752-1.129v4.059c-1.543.796-3.388 1.129-5.297 1.129-5.024 0-8.922-3.046-8.922-8.263m5.29-1.765h5.146c-.272-1.736-1.421-2.437-2.598-2.437s-2.146.73-2.541 2.437z"/><path fill="#fff" d="M167.583 52.752h-.588v5.933h-5.886v.6h5.886v5.933h.588v-5.933h5.886v-.6h-5.886zM206.565 48.505c6.137 0 11.161 5.108 11.161 11.207s-4.831 11.04-10.874 11.2h-15.948l9.639-5.173H181.48l17.319-9.283h-9.531l11.627-6.229c2.089-1.092 3.955-1.722 5.67-1.722M233.957 49.967c4.399 0 8.16 2.438 8.699 6.598h-4.214c-.265-2.164-2.117-3.17-4.536-3.17-3.115 0-4.909.869-4.909 2.301 0 3.763 13.96-.484 13.96 7.843 0 4.978-4.565 6.222-8.936 6.222-5.505 0-9.366-2.706-9.474-7.25h4.134c.079 2.46 2.204 3.813 5.34 3.813 2.871 0 4.909-.78 4.909-2.785 0-3.487-13.959.296-13.959-7.683 0-4.088 4.184-5.897 8.993-5.897zM310.347 61.195c0 3.379 2.225 5.006 5.103 5.006s5.103-1.62 5.103-5.006V50.401h3.89v10.794c0 5.354-3.675 8.573-8.993 8.573s-8.993-3.22-8.993-8.573V50.401h3.89zM335.437 49.967c4.4 0 8.16 2.438 8.699 6.598h-4.213c-.266-2.164-2.118-3.17-4.536-3.17-3.116 0-4.91.869-4.91 2.301 0 3.763 13.96-.484 13.96 7.843 0 4.978-4.565 6.222-8.936 6.222-5.505 0-9.366-2.706-9.474-7.25h4.135c.078 2.46 2.203 3.813 5.339 3.813 2.871 0 4.909-.78 4.909-2.785 0-3.487-13.959.296-13.959-7.683 0-4.088 4.184-5.897 8.993-5.897zM260.883 53.866h-12.294v4.139h10.765v3.465h-10.765v4.413h12.423v3.466h-16.321V50.408h16.185v3.465zM274.188 64.603 279.42 50.4h5.742v18.94h-3.811V56.059l-4.938 13.284h-4.457l-4.938-13.255v13.255h-3.811V50.4h5.741l5.233 14.202z"/><path fill="#fff" fill-rule="evenodd" d="M297.595 50.401c3.783 0 7.084 1.244 7.084 5.195 0 2.409-1.127 3.486-2.842 3.979h2.361v9.767h-3.89v-6.924h-8.562v6.924h-3.891V50.4zm-5.849 8.551h5.849c1.88 0 3.165-.701 3.165-2.546s-1.292-2.547-3.165-2.547h-5.849v5.093" clip-rule="evenodd"/><path fill="#fff" d="M350.066 58.005h10.521V50.4h3.891v18.94h-3.891v-7.87h-10.521v7.87h-3.89v-18.94h3.89z"/></g></svg>