<svg xmlns="http://www.w3.org/2000/svg" width="136" height="136" fill="none"><foreignObject width="216" height="216" x="-40" y="-40"><div xmlns="http://www.w3.org/1999/xhtml" style="backdrop-filter:blur(20px);clip-path:url(#a);height:100%;width:100%"/></foreignObject><g data-figma-bg-blur-radius="40" filter="url(#b)"><rect width="136" height="136" fill="#fff" fill-opacity=".05" rx="68"/><rect width="134.375" height="134.375" x=".812" y=".812" stroke="url(#c)" stroke-width="1.625" rx="67.188"/><path fill="#fff" d="M65.924 36.997a50.2 50.2 0 0 0 4.994 10.928h.02C77.2 58.142 86.879 65.61 98.782 69.753v1.698C86.878 75.59 77.195 83.058 70.94 93.28a49.2 49.2 0 0 0-5.003 10.929h-1.529a50.3 50.3 0 0 0-4.994-10.929c-6.26-10.221-15.94-17.69-27.843-21.828v-1.698c11.903-4.139 21.582-11.607 27.822-21.828a49.2 49.2 0 0 0 5.002-10.928zM93.316 32.179a16 16 0 0 0 1.605 3.511h.007c2.011 3.284 5.122 5.683 8.946 7.014v.546c-3.824 1.33-6.936 3.73-8.946 7.014a15.8 15.8 0 0 0-1.608 3.512h-.491a16.2 16.2 0 0 0-1.605-3.512c-2.012-3.284-5.122-5.684-8.947-7.014v-.546c3.825-1.33 6.935-3.73 8.94-7.014a15.8 15.8 0 0 0 1.608-3.511z"/></g><defs><linearGradient id="c" x1="0" x2="52.385" y1="0" y2="162.89" gradientUnits="userSpaceOnUse"><stop stop-color="#ddd"/><stop offset="1" stop-color="#fff" stop-opacity="0"/></linearGradient><clipPath id="a" transform="translate(40 40)"><rect width="136" height="136" rx="68"/></clipPath><filter id="b" width="216" height="216" x="-40" y="-40" color-interpolation-filters="sRGB" filterUnits="userSpaceOnUse"><feFlood flood-opacity="0" result="BackgroundImageFix"/><feBlend in="SourceGraphic" in2="BackgroundImageFix" result="shape"/><feColorMatrix in="SourceAlpha" result="hardAlpha" values="0 0 0 0 0 0 0 0 0 0 0 0 0 0 0 0 0 0 127 0"/><feOffset dy="4"/><feGaussianBlur stdDeviation="7.5"/><feComposite in2="hardAlpha" k2="-1" k3="1" operator="arithmetic"/><feColorMatrix values="0 0 0 0 0 0 0 0 0 0 0 0 0 0 0 0 0 0 0.05 0"/><feBlend in2="shape" result="effect1_innerShadow_6970_55048"/></filter></defs></svg>
