<svg xmlns="http://www.w3.org/2000/svg" width="205" height="100" fill="none"><g clip-path="url(#a)"><path fill="#181e15" d="M105.879 39.799a2.53 2.53 0 0 1-2.538 2.537 2.53 2.53 0 0 1-2.538-2.537 2.51 2.51 0 0 1 2.538-2.538c1.445.04 2.538 1.171 2.538 2.538m-10.465 5.114v.625s-1.21-1.562-3.788-1.562c-4.257 0-7.576 3.24-7.576 7.73 0 4.45 3.28 7.73 7.576 7.73 2.616 0 3.788-1.601 3.788-1.601v.664c0 .312.234.546.546.546h3.163V44.366H95.96a.56.56 0 0 0-.546.547m0 9.408c-.586.86-1.758 1.601-3.163 1.601-2.5 0-4.413-1.562-4.413-4.216s1.913-4.217 4.413-4.217c1.366 0 2.616.781 3.163 1.601zm6.052-9.955h3.749v14.68h-3.749zm55.999-.39c-2.578 0-3.788 1.562-3.788 1.562V37.3h-3.749v21.745h3.163a.56.56 0 0 0 .547-.546v-.664s1.21 1.6 3.788 1.6c4.256 0 7.575-3.279 7.575-7.73 0-4.45-3.319-7.729-7.536-7.729m-.625 11.907c-1.445 0-2.578-.742-3.163-1.6V49.05c.585-.78 1.835-1.6 3.163-1.6 2.499 0 4.412 1.561 4.412 4.216 0 2.654-1.913 4.216-4.412 4.216m-8.865-5.544v8.745h-3.748V50.77c0-2.42-.781-3.397-2.89-3.397-1.133 0-2.304.586-3.046 1.445v10.228h-3.749V44.366h2.968c.312 0 .547.274.547.547v.625c1.093-1.132 2.538-1.562 3.983-1.562q2.46 0 4.1 1.405c1.328 1.093 1.835 2.499 1.835 4.958m-22.532-6.363c-2.577 0-3.788 1.562-3.788 1.562V37.3h-3.748v21.745h3.163a.56.56 0 0 0 .546-.546v-.664s1.211 1.6 3.788 1.6c4.257 0 7.576-3.279 7.576-7.73.039-4.45-3.28-7.729-7.537-7.729m-.624 11.907c-1.445 0-2.578-.742-3.164-1.6V49.05c.586-.78 1.836-1.6 3.164-1.6 2.499 0 4.412 1.561 4.412 4.216 0 2.654-1.913 4.216-4.412 4.216m-10.154-11.907c1.133 0 1.719.195 1.719.195v3.475s-3.124-1.054-5.077 1.17v10.268h-3.749V44.366h3.163c.313 0 .547.274.547.547v.625c.703-.82 2.226-1.562 3.397-1.562M75.732 57.718c-.195-.469-.39-.976-.585-1.406-.313-.702-.625-1.366-.899-1.99l-.039-.04a407 407 0 0 0-8.63-17.645l-.117-.234a80 80 0 0 1-.937-1.835c-.39-.703-.781-1.445-1.406-2.148C61.87 30.86 60.073 30 58.16 30c-1.952 0-3.71.859-4.998 2.342-.586.703-1.015 1.445-1.406 2.148-.312.624-.624 1.249-.937 1.834l-.117.235c-3.007 5.855-5.936 11.79-8.63 17.645l-.04.078c-.272.625-.585 1.289-.897 1.991q-.293.645-.586 1.406c-.508 1.444-.664 2.81-.469 4.216a8.3 8.3 0 0 0 5.077 6.48 8 8 0 0 0 3.163.625c.312 0 .703-.039 1.015-.078 1.289-.156 2.617-.586 3.905-1.327 1.601-.898 3.124-2.186 4.843-4.06 1.718 1.874 3.28 3.162 4.842 4.06 1.289.741 2.616 1.17 3.905 1.327.312.039.703.078 1.015.078 1.094 0 2.187-.195 3.163-.625 2.734-1.093 4.647-3.591 5.077-6.48.312-1.366.156-2.733-.352-4.177m-17.611 2.03c-2.11-2.655-3.476-5.153-3.944-7.261-.196-.898-.235-1.68-.118-2.382a3.8 3.8 0 0 1 .625-1.64c.742-1.054 1.992-1.717 3.437-1.717s2.733.624 3.436 1.718c.313.468.547 1.014.625 1.64.117.702.078 1.522-.117 2.38-.469 2.07-1.836 4.568-3.944 7.262m15.58 1.835a5.8 5.8 0 0 1-3.553 4.567c-.937.39-1.952.508-2.968.39-.976-.117-1.952-.429-2.968-1.014-1.405-.781-2.811-1.991-4.451-3.787 2.577-3.162 4.14-6.051 4.725-8.628a9.8 9.8 0 0 0 .195-3.318 6.3 6.3 0 0 0-1.054-2.655c-1.21-1.757-3.241-2.772-5.506-2.772s-4.296 1.054-5.507 2.772a6.3 6.3 0 0 0-1.054 2.655 8.1 8.1 0 0 0 .195 3.318c.586 2.577 2.187 5.505 4.725 8.667-1.6 1.796-3.045 3.006-4.451 3.787-1.016.585-1.992.898-2.968 1.015a6.25 6.25 0 0 1-2.968-.39 5.8 5.8 0 0 1-3.553-4.568 6.46 6.46 0 0 1 .351-3.045c.117-.39.312-.781.508-1.25.273-.624.585-1.288.898-1.952l.039-.078a427 427 0 0 1 8.59-17.528l.118-.234c.313-.586.625-1.21.937-1.796.313-.625.664-1.21 1.094-1.718.82-.937 1.913-1.444 3.124-1.444 1.21 0 2.304.507 3.124 1.444.43.508.78 1.093 1.093 1.718.313.585.625 1.21.937 1.796l.117.234a518 518 0 0 1 8.552 17.567v.04c.313.624.586 1.327.899 1.951.195.469.39.86.507 1.25.313 1.015.43 1.99.274 3.006"/></g><defs><clipPath id="a"><path fill="#fff" d="M40 16h125v68H40z"/></clipPath></defs></svg>