<svg xmlns="http://www.w3.org/2000/svg" width="183" height="100" fill="none"><g fill="#181e15" fill-rule="evenodd" clip-path="url(#a)" clip-rule="evenodd"><path d="M103.9 63.243c-5.986 4.494-14.66 6.892-22.13 6.892-10.474 0-19.903-3.946-27.037-10.51-.559-.515-.058-1.218.615-.817 7.698 4.563 17.216 7.309 27.05 7.309 6.63 0 13.925-1.399 20.632-4.298 1.014-.44 1.861.675.87 1.424"/><path d="M106.388 60.343c-.763-.996-5.058-.472-6.986-.238-.587.072-.677-.448-.147-.823 3.421-2.452 9.034-1.745 9.688-.922.654.826-.17 6.56-3.386 9.295-.493.42-.963.196-.743-.361.721-1.837 2.34-5.951 1.574-6.951m-6.852-18.377v-2.384c0-.36.27-.603.592-.603h10.478c.337 0 .605.247.605.603v2.043c-.004.341-.287.789-.789 1.497l-5.429 7.897c2.017-.05 4.147.257 5.976 1.306.413.238.526.585.557.927v2.545c0 .347-.377.754-.772.544-3.223-1.723-7.505-1.91-11.07.017-.363.201-.744-.2-.744-.546v-2.417c0-.389.005-1.05.386-1.641l6.289-9.19h-5.473a.585.585 0 0 1-.606-.598M61.314 56.843h-3.187a.6.6 0 0 1-.386-.169.62.62 0 0 1-.184-.384V39.624c0-.335.274-.6.614-.6h2.974a.61.61 0 0 1 .578.56v2.177h.058c.776-2.105 2.233-3.088 4.197-3.088 1.994 0 3.241.983 4.137 3.088.772-2.105 2.525-3.088 4.403-3.088 1.337 0 2.799.562 3.69 1.823 1.009 1.402.803 3.438.803 5.224l-.005 10.52a.62.62 0 0 1-.184.431.6.6 0 0 1-.43.172H75.21a.6.6 0 0 1-.404-.187.62.62 0 0 1-.17-.416v-8.834c0-.703.062-2.456-.09-3.123-.238-1.12-.95-1.435-1.874-1.435-.772 0-1.578.525-1.907 1.365-.326.84-.296 2.248-.296 3.193v8.834a.63.63 0 0 1-.184.431.6.6 0 0 1-.43.172h-3.182a.6.6 0 0 1-.404-.186.62.62 0 0 1-.17-.417l-.005-8.834c0-1.859.3-4.595-1.963-4.595-2.292 0-2.203 2.668-2.203 4.595v8.834a.62.62 0 0 1-.184.431.6.6 0 0 1-.43.172m58.919-18.17c4.73 0 7.29 4.138 7.29 9.4 0 5.084-2.83 9.117-7.29 9.117-4.646 0-7.174-4.138-7.174-9.295 0-5.189 2.561-9.222 7.174-9.222m.027 3.403c-2.349 0-2.498 3.261-2.498 5.294 0 2.037-.031 6.385 2.471 6.385 2.471 0 2.586-3.507 2.586-5.645 0-1.406-.057-3.087-.475-4.421-.358-1.161-1.07-1.613-2.084-1.613m13.397 14.767h-3.175a.6.6 0 0 1-.403-.187.62.62 0 0 1-.171-.416l-.004-16.671a.61.61 0 0 1 .203-.394c.113-.1.26-.154.41-.15h2.956a.6.6 0 0 1 .36.136c.103.084.176.2.209.33v2.549h.058c.892-2.28 2.144-3.367 4.345-3.367 1.43 0 2.825.525 3.721 1.965.834 1.333.834 3.575.834 5.188v10.491a.63.63 0 0 1-.211.38.6.6 0 0 1-.403.146h-3.197a.6.6 0 0 1-.375-.16.62.62 0 0 1-.19-.365v-9.053c0-1.823.207-4.49-1.995-4.49-.775 0-1.489.53-1.843 1.334-.449 1.019-.506 2.032-.506 3.156v8.975a.63.63 0 0 1-.191.432.6.6 0 0 1-.432.171m-42.473-7.96c0 1.264.031 2.32-.597 3.442-.506.915-1.314 1.476-2.206 1.476-1.223 0-1.941-.95-1.941-2.352 0-2.768 2.435-3.27 4.744-3.27zm3.214 7.914a.66.66 0 0 1-.752.078c-1.059-.895-1.252-1.311-1.83-2.165-1.748 1.818-2.99 2.362-5.255 2.362-2.685 0-4.77-1.686-4.77-5.061 0-2.635 1.399-4.43 3.399-5.308 1.73-.776 4.147-.913 5.993-1.128v-.42c0-.772.06-1.686-.389-2.353-.385-.598-1.13-.845-1.789-.845-1.215 0-2.296.636-2.56 1.95-.054.293-.265.581-.556.594l-3.09-.338c-.259-.059-.55-.273-.475-.68.71-3.818 4.098-4.97 7.13-4.97 1.55 0 3.577.42 4.8 1.617 1.552 1.476 1.404 3.445 1.404 5.587v5.06c0 1.522.62 2.188 1.202 3.01.202.293.247.645-.014.864q-1.234 1.063-2.443 2.155zm-45.005-7.914c0 1.264.032 2.32-.596 3.442-.507.915-1.31 1.476-2.206 1.476-1.224 0-1.937-.95-1.937-2.352 0-2.768 2.434-3.27 4.739-3.27zm3.215 7.914a.66.66 0 0 1-.753.078c-1.059-.895-1.247-1.311-1.83-2.165-1.749 1.818-2.986 2.362-5.254 2.362-2.681 0-4.771-1.686-4.771-5.061 0-2.635 1.403-4.43 3.399-5.308 1.73-.776 4.146-.913 5.994-1.128v-.42c0-.772.058-1.686-.386-2.353-.39-.598-1.134-.845-1.788-.845-1.217 0-2.301.636-2.564 1.95-.055.293-.265.581-.553.594l-3.093-.338c-.26-.059-.548-.273-.475-.68.712-3.818 4.098-4.97 7.129-4.97 1.551 0 3.577.42 4.801 1.617 1.552 1.476 1.403 3.445 1.403 5.587v5.06c0 1.522.62 2.188 1.202 3.01.207.293.252.645-.01.864q-1.233 1.063-2.443 2.155z"/></g><defs><clipPath id="a"><path fill="#fff" d="M40 26h103v48H40z"/></clipPath></defs></svg>