<svg xmlns="http://www.w3.org/2000/svg" width="223" height="100" fill="none"><path fill="#181e15" d="M96.009 40.267c0-1.207.971-2.183 2.166-2.183 1.2 0 2.174.976 2.174 2.183a2.18 2.18 0 0 1-2.174 2.182 2.175 2.175 0 0 1-2.166-2.182m34.242 14.519c0-1.208.97-2.185 2.166-2.185a2.18 2.18 0 0 1 2.173 2.185 2.18 2.18 0 0 1-2.173 2.182 2.177 2.177 0 0 1-2.166-2.182m-69.86-.944c-1.87 0-3.168-1.489-3.168-3.617 0-2.127 1.299-3.615 3.168-3.615 1.88 0 3.193 1.488 3.193 3.615 0 2.162-1.286 3.617-3.193 3.617m0-10.412c-3.955 0-6.824 2.859-6.824 6.795s2.87 6.794 6.824 6.794c3.969 0 6.85-2.857 6.85-6.794s-2.881-6.795-6.85-6.795m31.415 7.134a3.2 3.2 0 0 0-.518-.73l-.12-.127.126-.121c.182-.192.367-.42.546-.683l3.49-5.205h-4.236l-2.622 4.071q-.223.329-.897.329h-.597v-7.697c0-1.539-.956-1.748-1.99-1.748h-1.767l.003 18.166h3.754v-5.45h.351c.428 0 .72.05.853.284l2.07 3.92c.58 1.064 1.156 1.246 2.24 1.246h2.877l-2.143-3.555zm18.222-7.162c-1.91 0-3.128.85-3.81 1.57l-.228.231-.08-.314c-.201-.771-.877-1.195-1.894-1.195h-1.683l.01 13.12h3.729v-6.047c0-.591.077-1.104.232-1.572.415-1.417 1.573-2.298 3.02-2.298 1.163 0 1.618.616 1.618 2.208v5.715c0 1.359.627 1.994 1.982 1.994h1.774l-.006-8.344c0-3.316-1.612-5.068-4.664-5.068m-11.804.297h-1.767l.012 10.145v2.973h1.885c.024 0 .043.003.067.003l.878-.003h.875v-.005h.006l.008-11.12c0-1.342-.64-1.993-1.962-1.993M75.035 53.842c-1.869 0-3.17-1.489-3.17-3.617 0-2.127 1.301-3.615 3.17-3.615 1.876 0 3.193 1.488 3.193 3.615 0 2.162-1.286 3.617-3.193 3.617m0-10.412c-3.958 0-6.829 2.859-6.829 6.795s2.87 6.794 6.829 6.794c3.965 0 6.851-2.857 6.851-6.794S79 43.43 75.035 43.43m79.912 10.412c-1.868 0-3.17-1.489-3.17-3.617 0-2.127 1.302-3.615 3.17-3.615 1.876 0 3.194 1.488 3.194 3.615 0 2.162-1.286 3.617-3.194 3.617m0-10.412c-3.957 0-6.828 2.859-6.828 6.795s2.871 6.794 6.828 6.794c3.966 0 6.851-2.857 6.851-6.794s-2.885-6.795-6.851-6.795m-32.393 9.834c-2.038 0-2.764-1.783-2.764-3.455 0-.737.186-3.137 2.568-3.137 1.184 0 2.761.34 2.761 3.26 0 2.755-1.396 3.332-2.565 3.332m4.501-9.6c-.707 0-1.252.283-1.525.8l-.103.2-.172-.15c-.602-.522-1.681-1.142-3.433-1.142-3.486 0-5.834 2.627-5.834 6.535 0 3.905 2.429 6.633 5.904 6.633 1.187 0 2.125-.278 2.868-.842l.288-.217v.365c0 1.752-1.13 2.719-3.178 2.719-.995 0-1.901-.243-2.507-.464-.79-.24-1.254-.041-1.575.755l-.296.734-.419 1.073.26.139c1.31.698 3.016 1.114 4.559 1.114 3.175 0 6.882-1.63 6.882-6.218l.014-12.034zM46.507 53.692l-3.035-.003v-3.64c0-.778.3-1.183.965-1.276h2.07c1.477 0 2.431.935 2.432 2.447 0 1.551-.931 2.47-2.432 2.472m-3.035-9.82v-.957c0-.839.353-1.238 1.13-1.289h1.552c1.332 0 2.13.8 2.13 2.137 0 1.02-.546 2.21-2.08 2.21h-2.733v-2.1zm6.91 3.633-.548-.31.479-.41c.557-.48 1.49-1.56 1.49-3.427 0-2.855-2.207-4.698-5.624-4.698h-3.9v-.001h-.444A1.906 1.906 0 0 0 40 40.545v16.209h6.256c3.798 0 6.25-2.075 6.25-5.287 0-1.73-.793-3.209-2.124-3.96m128.071-4.063a5.14 5.14 0 0 0-4.002 1.945l-.271.343-.212-.384c-.69-1.263-1.878-1.904-3.531-1.904-1.733 0-2.895.97-3.435 1.546l-.353.384-.136-.505c-.197-.727-.842-1.127-1.819-1.127h-1.567l-.015 13.07h3.56v-5.77c0-.505.062-1.005.189-1.528.34-1.394 1.274-2.893 2.844-2.744.968.094 1.441.844 1.441 2.294v7.748h3.585v-5.77c0-.631.059-1.104.201-1.578.289-1.331 1.264-2.696 2.779-2.696 1.096 0 1.501.623 1.501 2.296v5.837c0 1.32.587 1.911 1.903 1.911h1.675l.003-8.344c0-3.333-1.461-5.024-4.34-5.024m-32.395 8.83c-.01.013-1.542 1.634-3.559 1.634-1.838 0-3.695-1.132-3.695-3.657 0-2.18 1.44-3.704 3.5-3.704.669 0 1.43.24 1.55.645l.017.068c.274.917 1.105.967 1.269.967l1.95.002v-1.71c0-2.257-2.861-3.075-4.786-3.075-4.116 0-7.104 2.875-7.104 6.835 0 3.958 2.955 6.829 7.029 6.829 3.534 0 5.457-2.33 5.474-2.354l.103-.126-1.545-2.571z"/></svg>