<svg xmlns="http://www.w3.org/2000/svg" width="239" height="100" fill="none"><path fill="#181e15" d="M88.422 58.34h11.271v-3.622h-6.982V51.68h6.184v-3.372h-6.184V45.27h6.982v-3.61H88.422zm25.259-7.184c-1.632 2.597-3.217 3.681-5.254 3.681-2.645 0-4.182-1.858-4.182-5.087 0-3.062 1.418-4.587 3.598-4.587 1.442 0 2.633.643 3.003 2.788h4.289c-.465-4.087-3.074-6.625-7.244-6.625-4.838 0-8.019 3.42-8.019 8.662 0 5.278 3.181 8.686 8.412 8.686 3.42 0 5.743-1.43 7.28-3.36h5.85v3.026h4.266V41.66h-6.053zm7.733.81h-3.777l3.777-6.136zM79.271 41.66h-6.267v16.68h6.267c4.969 0 8.174-3.276 8.174-8.34s-3.205-8.34-8.174-8.34m-.06 13.058h-1.918V45.27h1.919c2.478 0 3.872 1.751 3.872 4.73 0 2.967-1.394 4.718-3.872 4.718m95.701-13.392c-5.04 0-8.424 3.42-8.424 8.674s3.384 8.674 8.424 8.674c5.052 0 8.424-3.42 8.424-8.674s-3.372-8.674-8.424-8.674m0 13.511c-2.478 0-4.039-1.656-4.039-4.837s1.561-4.837 4.039-4.837c2.49 0 4.039 1.656 4.039 4.837s-1.549 4.837-4.039 4.837m-48.16-9.567h4.206v13.07h4.289V45.27h4.206v-3.61h-12.701zm67.534-3.61v9.186l-5.529-9.186h-4.444v16.68h4.146v-9.567l5.755 9.567h4.218V41.66zm-33.874 0h-4.29v16.68h10.76v-3.61h-6.47zm-9.818 6.362h-5.779V41.66h-4.289v16.68h4.289v-6.72h5.779v6.72h4.289V41.66h-4.289zM60.9 38.085c-9.314 0-20.9 9.637-20.9 17.624 0 4.125 3.169 6.206 7.353 6.206 3.073 0 6.792-1.124 10.379-3.288V42.688c-.957 1.639-5.452 8.239-9.063 11.754-1.842 1.793-3.3 2.57-4.556 2.57-1.41 0-2.08-.956-2.08-2.379 0-6.456 10.868-14.85 18.066-14.85 2.966 0 4.879 1.315 4.879 3.874 0 2.343-1.59 5.285-4.305 7.999v4.938c4.735-3.742 7.569-8.513 7.569-12.363 0-4.053-3.157-6.146-7.342-6.146"/></svg>