<svg xmlns="http://www.w3.org/2000/svg" width="235" height="100" fill="none"><path fill="#181e15" d="m57.9 40.526-8.953 5.713 8.953 5.714-8.953 5.713L40 51.908l8.952-5.714L40 40.526l8.952-5.714zm-8.995 18.953 8.952-5.713 8.952 5.713-8.952 5.709-8.952-5.714zm8.995-7.571 8.952-5.714-8.952-5.668 8.91-5.714 8.952 5.714-8.952 5.713 8.952 5.714-8.952 5.713-8.905-5.761zM82.762 40.526h7.232c4.619 0 8.428 2.667 8.428 8.762v1.285c0 6.143-3.571 8.905-8.285 8.905h-7.375zm4.047 3.435v12.054h3.096c2.619 0 4.381-1.714 4.381-5.524v-1c0-3.81-1.856-5.524-4.524-5.524H86.81zm13.762.19h3.239l.524 3.572c.619-2.429 2.191-3.714 5.047-3.714h1.001v4.095h-1.667c-3.285 0-4.095 1.143-4.095 4.382v7.047h-4v-15.38h-.048zm10.62 8v-.421c0-5.143 3.285-7.952 7.762-7.952 4.571 0 7.763 2.81 7.763 7.952v.422c0 5.047-3.096 7.762-7.763 7.762-4.952-.048-7.762-2.714-7.762-7.762m11.428-.048v-.38c0-2.857-1.428-4.572-3.714-4.572-2.238 0-3.714 1.571-3.714 4.572v.38c0 2.762 1.428 4.34 3.714 4.34 2.286-.048 3.714-1.571 3.714-4.34m6.191-7.952h3.333l.381 2.905c.809-1.953 2.524-3.286 5.047-3.286 3.905 0 6.477 2.81 6.477 8v.422c0 5.047-2.857 7.714-6.477 7.714-2.429 0-4.095-1.095-4.904-2.856v7.762h-3.906l.048-20.672zm11.191 7.952v-.333c0-3.048-1.572-4.571-3.667-4.571-2.239 0-3.714 1.714-3.714 4.571v.286c0 2.714 1.428 4.428 3.666 4.428 2.286-.048 3.715-1.523 3.715-4.38m9.952 4.572-.333 2.81h-3.435V39.003h3.905v7.863c.857-2 2.572-3.095 5-3.095 3.667.048 6.381 2.572 6.381 7.666v.482c0 5.095-2.572 8-6.476 8-2.572-.048-4.238-1.238-5.048-3.238zm7.429-4.761v-.381c0-2.81-1.524-4.382-3.667-4.382-2.191 0-3.714 1.762-3.714 4.429v.333c0 2.857 1.476 4.524 3.666 4.524 2.334 0 3.715-1.476 3.715-4.523m5.81.238v-.422c0-5.143 3.285-7.952 7.762-7.952 4.571 0 7.763 2.81 7.763 7.952v.422c0 5.047-3.143 7.762-7.763 7.762-4.952-.048-7.762-2.714-7.762-7.762m11.476-.049v-.38c0-2.857-1.429-4.572-3.714-4.572-2.239 0-3.715 1.571-3.715 4.572v.38c0 2.762 1.429 4.34 3.715 4.34 2.285-.048 3.714-1.571 3.714-4.34m9.285-.57-5.38-7.382h4.619l3.095 4.62 3.143-4.62h4.571l-5.476 7.333 5.761 7.995h-4.524l-3.524-5.095-3.435 5.095h-4.714l5.858-7.952z"/></svg>