<svg xmlns="http://www.w3.org/2000/svg" width="182" height="100" fill="none"><path stroke="#181e15" d="M106.84 57.047v4.477H93.115V37.565h13.725v4.462h-8.564v4.702h8.564v4.249h-8.564v6.07zm8.052 4.477h-6.172l6.651-7.009.369-.389-.369-.389-6.65-7.008h6.417l3.579 3.696.414.427.406-.436 3.436-3.687h6.134l-6.616 6.974-.37.391.371.39 6.716 7.04h-6.445l-3.543-3.725-.411-.432-.409.434z"/><path fill="#181e15" fill-rule="evenodd" d="M86.286 37v10.268h-.072c-1.387-1.496-3.12-2.015-5.13-2.015-4.153 0-7.239 2.683-8.303 6.197-1.223-3.876-4.42-6.269-9.205-6.269-3.886 0-6.912 1.67-8.494 4.351v-3.369H47.11v-3.572h8.703V37H40v25.089h7.11V51.542h7.126c-.215.781-.366 1.597-.366 2.481 0 5.234 4.262 8.907 9.706 8.907 4.577 0 7.593-2.016 9.19-5.688h-6.093c-.823 1.105-1.45 1.43-3.098 1.43-1.91 0-3.556-1.56-3.556-3.413h12.438C72.999 59.41 76.416 63 81.154 63c2.044 0 3.916-.94 5.06-2.534h.072v1.623h6.263V37zM60.218 51.617c.393-1.594 1.711-2.634 3.357-2.634 1.813 0 3.064 1.01 3.393 2.634zm22.264 6.653c-2.31 0-3.745-2.02-3.745-4.125 0-2.251 1.247-4.417 3.745-4.417 2.588 0 3.618 2.166 3.618 4.417 0 2.136-1.092 4.125-3.618 4.125m51.559.712c0-1.986 1.72-3.598 3.858-3.598.505 0 1.005.092 1.47.273.466.18.89.445 1.246.78.358.334.64.731.832 1.167.193.438.292.906.292 1.38 0 2.005-1.71 3.617-3.84 3.617a4.1 4.1 0 0 1-1.477-.273 3.9 3.9 0 0 1-1.254-.784 3.6 3.6 0 0 1-.837-1.176 3.4 3.4 0 0 1-.29-1.386m7.02 0c0-.785-.332-1.54-.926-2.095a3.27 3.27 0 0 0-2.236-.87c-1.761 0-3.183 1.334-3.183 2.965 0 .393.081.78.242 1.143.159.362.394.692.689.97.296.277.647.498 1.033.647.387.15.802.227 1.219.226 1.752 0 3.163-1.334 3.163-2.984zm-3.979.241v1.835h-.708v-4.244h1.463c.83 0 1.69.212 1.69 1.171 0 .49-.317.874-.923.99v.019c.626.114.698.373.769.834.061.402.113.844.266 1.23h-.9c-.053-.24-.124-.51-.155-.76-.05-.365-.05-.698-.254-.902-.175-.172-.412-.152-.656-.172h-.593zm.746-.662c.667-.02.819-.28.819-.605 0-.315-.153-.48-.715-.48h-.851v1.086z" clip-rule="evenodd"/></svg>