<svg xmlns="http://www.w3.org/2000/svg" width="172" height="100" fill="none"><path fill="#181e15" d="M52.65 60.889c-1.384.244-2.792.317-4.249.512l-4.443-13.086v13.648c-1.384.146-2.647.342-3.958.537v-25h3.69l5.051 14.185V37.5h3.91zM60.3 46.655c1.505 0 3.812-.073 5.196-.073v3.906c-1.724 0-3.74 0-5.196.073v5.811c2.282-.146 4.565-.342 6.871-.415v3.76l-10.756.854V37.5H67.17v3.906H60.3zm21.318-5.249h-4.03v17.97c-1.312 0-2.623 0-3.885.048V41.406h-4.03V37.5h11.945zm6.313 4.98h5.318v3.907H87.93v8.862h-3.812V37.5h10.854v3.906H87.93zm13.355 9.351c2.209.049 4.443.22 6.604.342v3.858c-3.472-.22-6.944-.44-10.49-.513V37.5h3.886zm9.882 4.468c1.238.073 2.549.147 3.812.293V37.5h-3.812zM132 37.5l-4.929 11.89L132 62.5c-1.457-.195-2.914-.464-4.371-.708l-2.792-7.227-2.84 6.641c-1.409-.244-2.769-.317-4.177-.513l5.002-11.45-4.516-11.743h4.176l2.549 6.567 2.72-6.567z"/></svg>