<svg xmlns="http://www.w3.org/2000/svg" width="140" height="100" fill="none"><path fill="#181e15" d="M63.77 62.987c-2.048-.11-3.575-.95-4.47-2.454-.598-1.01-.78-2.34-.506-3.697.303-1.504 1.336-2.86 2.919-3.835.91-.561 1.69-.91 3.274-1.465q.388-.127.766-.286c.031-.024.035-.113.02-.403-.046-.821.09-2.102.326-3.026.391-1.554 1.146-2.809 2.147-3.57a6.35 6.35 0 0 1 2.599-1.134c.518-.097 1.386-.096 1.873 0 2.088.42 3.262 2.024 2.8 3.83-.097.38-.405 1.005-.665 1.351-.665.884-1.668 1.672-3.084 2.42q-.642.325-1.294.634c-.533.254-.986.48-1.007.5-.03.03-.022.117.035.407.265 1.341.711 2.476 1.475 3.744.302.507.72 1.143.769 1.172.069.042.35-.412.535-.86.227-.557.358-1.291.292-1.657a1.4 1.4 0 0 0-.372-.714 1 1 0 0 1-.154-.175c0-.013.71-.02 1.58-.014l1.58.008-.009.199c-.013.273-.115.855-.222 1.268-.301 1.165-.871 2.16-1.856 3.248-.115.128-.21.254-.21.28s.163.204.362.397c1.244 1.2 3.448 2.585 5.242 3.294.175.069.317.139.316.156 0 .02-1.037.033-3.027.039l-3.026.007-.172-.097c-.353-.196-1.13-.823-1.88-1.51-.157-.147-.307-.266-.332-.266s-.2.102-.391.226c-.971.637-2.133 1.212-3.115 1.538-1.117.37-2.038.503-3.118.445m2.548-2.612c.52-.1 1.03-.25 1.52-.447.516-.204 1.153-.517 1.175-.576.011-.023-.108-.22-.26-.436-.705-.999-1.456-2.405-1.962-3.665a21 21 0 0 1-.6-1.775c-.022-.09-.06-.172-.086-.182-.07-.026-.648.28-1.148.61-1.775 1.173-2.626 2.603-2.437 4.098.083.664.295 1.149.678 1.558.712.755 1.823 1.047 3.12.815m3.013-10.395c.658-.383 1.7-1.313 2.283-2.035.745-.926 1.142-1.789 1.143-2.49 0-.4-.057-.58-.244-.764-.184-.184-.393-.26-.713-.26-.946 0-1.97 1.118-2.415 2.639-.224.767-.279 1.18-.281 2.119 0 .715.011.874.065.874a1 1 0 0 0 .162-.083M84.98 62.97c-1.56-.156-2.587-.39-3.746-.845-1.578-.624-2.562-1.394-3.394-2.657a10.3 10.3 0 0 1-.81-1.612c-.722-1.955-.88-4.417-.45-6.984.434-2.6 1.426-5.105 2.794-7.062.888-1.27 2.207-2.608 3.571-3.618 2.25-1.666 4.84-2.69 7.718-3.052q1.191-.157 2.393-.137c1.56 0 2.748.12 4.317.43 1 .198 2.595.627 2.626.705.015.04-.995 3.264-1.037 3.308-.013.013-.168-.09-.344-.23-1.419-1.127-2.889-1.812-4.376-2.04a7.8 7.8 0 0 0-1.832 0c-2.085.32-4.018 1.646-5.733 3.933a19.5 19.5 0 0 0-1.65 2.672 21.7 21.7 0 0 0-1.54 3.883c-1.435 4.764-1.508 8.093-.217 9.895.531.742 1.308 1.215 2.294 1.396.565.104 1.938.041 2.075-.095.022-.022.692-2.111 1.49-4.643 1.31-4.16 1.452-4.628 1.467-4.863a1.6 1.6 0 0 0-.183-.872c-.13-.247-.473-.585-.756-.741a1 1 0 0 1-.222-.146c0-.013 2.198-.022 4.886-.022 2.687 0 4.885.01 4.885.022 0 .013-.118.078-.264.143-.76.347-1.312.867-1.64 1.547-.07.146-.686 2.049-1.61 4.979l-1.495 4.74-.43.207c-1.762.84-3.914 1.447-6.06 1.704-.396.048-2.397.088-2.727.054m-44.98-.346c-.01-.016.056-.07.145-.122.531-.305 1.127-.936 1.38-1.463.072-.152 6.776-21.411 6.924-21.96.026-.096.048-.299.048-.452a1.4 1.4 0 0 0-.483-1.118 1 1 0 0 1-.17-.188c0-.042 11.705-.04 12.242.004 1.161.09 2.326.399 3.216.85 1.52.77 2.428 1.936 2.708 3.476.079.428.093 1.381.03 1.843-.262 1.88-1.117 3.873-2.281 5.317-1.888 2.338-4.973 3.832-8.761 4.243-1.201.13-2.714.164-3.786.082a6 6 0 0 0-.577-.029c-.038.04-2.454 7.76-2.481 7.932-.086.533.19 1.13.663 1.443.094.061.162.125.153.14-.025.04-8.945.04-8.969 0zm13.288-11.469a5.86 5.86 0 0 0 2.404-1.005c.364-.255 1.11-.998 1.42-1.411.77-1.035 1.34-2.256 1.796-3.864.293-1.024.417-1.806.417-2.61 0-.62-.056-.99-.214-1.406a2.32 2.32 0 0 0-1.307-1.345c-.517-.209-.958-.263-2.018-.251l-.8.009-1.859 5.895c-1.022 3.242-1.853 5.91-1.847 5.93.008.02.136.052.286.071.149.02.292.042.319.048.116.029 1.152-.017 1.401-.06z"/></svg>