<svg xmlns="http://www.w3.org/2000/svg" width="204" height="100" fill="none"><path fill="#181e15" fill-rule="evenodd" d="M107.545 49.357s-1.199-.74-1.94-1.028c0 0-2.293-1.063-2.748-1.569 0 0-.894-.842-.371-1.82 0 0 .219-.64 1.164-.64 0 0 1.23.067 1.23 1.078v1.425h4.407l-.007-2.1s.339-3.439-5.192-3.59c0 0-4.35-.286-5.598 2.057 0 0-.49.523-.49 2.343v1.315s-.05 1.517.726 2.495c0 0 .438.641 1.517 1.349 0 0 2.192 1.18 3.507 1.855 0 0 1.327.758 1.153 1.964 0 0-.108 1.239-1.391 1.188 0 0-1.172-.052-1.172-1.267v-1.425h-4.697v2.07s-.131 3.959 5.904 3.959c0 0 5.767.117 6.036-4.063v-1.686s.203-2.56-2.038-3.91m-22.566-7.751-1.476 9.249h-.345l-1.41-9.166h-7.362l-.37 16.749h4.36l.052-12.62h.343l2.31 12.617h4.587l2.282-12.612h.304l.105 12.615h4.382l-.472-16.832zm-25.95.07-2.9 16.743h4.693l1.718-12.982h.386l1.717 12.982h4.692l-2.9-16.743zm98.472 7.45v2.47h1.204v2.652c0 1.296-1.108 1.32-1.108 1.32-1.347 0-1.296-1.232-1.296-1.232v-9.17c0-.945 1.195-.996 1.195-.996 1.147 0 1.155 1.127 1.155 1.127v1.394h4.418c.145-2.722-.398-3.38-.398-3.38-1.096-2.462-5.242-2.327-5.242-2.327-6.372 0-5.665 4.889-5.665 4.889v8.867c.137 4.585 6.416 4.119 6.522 4.115 2.792-.309 3.636-1.197 3.636-1.197a2.7 2.7 0 0 0 .976-1.375c.222-.465.277-1.947.277-1.947v-5.21zm-14.646 2.726h-.192l-4.484-10.242h-5.365v16.83h4.366l-.261-10.24h.195l4.646 10.24h5.201V41.608h-4.421zm-20.699 2.394s.063 1.381-1.217 1.381c0 0-1.347.073-1.347-1.346l-.014-12.66h-4.789V54.18s-.491 4.754 6.217 4.754c0 0 5.83.069 5.83-4.536V41.621h-4.68zM49.9 49.357s-1.197-.74-1.94-1.027c0 0-2.291-1.062-2.746-1.569 0 0-.895-.844-.37-1.82 0 0 .218-.64 1.162-.64 0 0 1.23.066 1.23 1.077v1.426h4.41l-.008-2.1s.336-3.44-5.192-3.59c0 0-.417-.027-1.028.003 0 0-3.35.18-4.547 2.018q-.012.018-.024.036s-.489.522-.489 2.343v1.315s-.05 1.517.725 2.495c0 0 .439.641 1.518 1.348 0 0 2.19 1.18 3.506 1.856 0 0 1.329.756 1.153 1.964 0 0-.109 1.238-1.39 1.188 0 0-1.172-.053-1.172-1.267v-1.426H40v2.072s-.131 3.958 5.904 3.958c0 0 5.765.117 6.036-4.062V53.27s.202-2.565-2.04-3.914" clip-rule="evenodd"/></svg>