<svg xmlns="http://www.w3.org/2000/svg" width="204" height="100" fill="none"><path fill="#181e15" d="M53.582 32.548c.855-.02 1.568.262 2.138.866.04.06.081.1.122.141.081-.02.184-.02.265-.02 1.303 0 2.362.725 3.095 2.115.224.423.387.846.488 1.188l1.04-.322c.163-.04.549-.1.752.1.204.202 2.261 2.176 2.261 2.176.034 0 2.444.02 2.566.04s.285.101.305.283c.027.206 3.758 25.179 3.767 25.236l-9.184 2.256L40 62.982s2.525-19.352 2.627-20.02c.122-.907.163-.927 1.12-1.23.02-.02 1.364-.423 3.278-1.007.204-1.45.916-3.323 1.873-4.814 1.365-2.134 3.014-3.322 4.684-3.363m2.524 10.957c-.009-.004-.925-.463-2.749-.303-4.662.303-6.78 3.525-6.576 6.708.245 3.766 4.072 3.645 4.215 5.941.04.564-.306 1.35-1.283 1.41-1.474.08-3.328-1.285-3.36-1.309l-.712 3.002c.024.025 1.875 1.952 5.233 1.751 2.81-.181 4.764-2.397 4.56-5.66-.264-4.128-4.947-4.51-5.07-6.283-.02-.342 0-1.632 2.077-1.753 1.421-.1 2.6.44 2.607.444zm-2.504-9.85c-2.565.081-4.805 4.049-5.416 6.708.916-.282 1.894-.584 2.912-.886.325-1.692 1.14-3.424 2.199-4.552a4.6 4.6 0 0 1 1.304-1.008c-.285-.18-.612-.261-.998-.261m1.731 1.15c-.489.2-.896.543-1.201.865-.794.846-1.446 2.135-1.792 3.424 1.221-.383 2.423-.745 3.543-1.088 0-.906-.082-2.255-.55-3.202m1.14-.142c.388 1.007.49 2.176.51 3.001.61-.18 1.16-.363 1.649-.504-.265-.845-.876-2.256-2.158-2.497M82.823 51.924c-1.06-.564-1.61-1.047-1.61-1.712 0-.846.754-1.39 1.956-1.39 1.384 0 2.606.564 2.606.564l.977-2.94s-.895-.685-3.522-.685c-3.665 0-6.21 2.074-6.21 4.995 0 1.651 1.18 2.92 2.769 3.827 1.282.725 1.73 1.228 1.73 1.994 0 .785-.63 1.41-1.832 1.41-1.772 0-3.441-.907-3.441-.907l-1.039 2.94s1.548 1.028 4.134 1.028c3.767 0 6.475-1.833 6.475-5.136.02-1.793-1.344-3.062-2.993-3.988M97.85 45.72c-1.853 0-3.32.867-4.44 2.196l-.06-.02 1.609-8.339h-4.195L86.69 60.766h4.195l1.405-7.251c.55-2.74 1.975-4.431 3.32-4.431.936 0 1.302.624 1.302 1.53 0 .565-.06 1.27-.183 1.834l-1.588 8.298h4.194l1.65-8.58c.183-.907.305-1.994.305-2.7 0-2.316-1.262-3.746-3.441-3.746m12.93 0c-5.05 0-8.389 4.512-8.389 9.547 0 3.223 2.016 5.801 5.783 5.801 4.948 0 8.307-4.39 8.307-9.547-.02-2.96-1.791-5.8-5.701-5.8m-2.077 12.166c-1.425 0-2.036-1.209-2.036-2.7 0-2.376 1.242-6.263 3.523-6.263 1.486 0 1.975 1.269 1.975 2.497 0 2.558-1.242 6.466-3.462 6.466m18.489-12.166c-2.83 0-4.439 2.458-4.439 2.458h-.061l.244-2.236h-3.706c-.183 1.51-.509 3.786-.855 5.499l-2.912 15.186h4.195l1.161-6.143h.081s.855.544 2.464.544c4.928 0 8.145-4.995 8.145-10.05.02-2.76-1.242-5.258-4.317-5.258m-4.011 12.226c-1.1 0-1.731-.604-1.731-.604l.692-3.887c.489-2.578 1.853-4.31 3.319-4.31 1.283 0 1.67 1.168 1.67 2.295 0 2.68-1.609 6.506-3.95 6.506m14.335-18.167c-1.344 0-2.403 1.047-2.403 2.417 0 1.228.794 2.074 1.975 2.074h.061c1.303 0 2.444-.866 2.464-2.417 0-1.208-.814-2.074-2.097-2.074m-5.865 20.987h4.195l2.851-14.703h-4.236zm17.716-14.743h-2.912l.142-.685c.245-1.41 1.1-2.68 2.485-2.68.753 0 1.343.202 1.343.202l.815-3.242s-.733-.363-2.281-.363c-1.486 0-2.973.423-4.113 1.39-1.425 1.208-2.097 2.94-2.443 4.693l-.122.684h-1.955l-.611 3.122h1.955l-2.22 11.622h4.195l2.219-11.622h2.892zm10.099.04s-2.626 6.546-3.807 10.11h-.062c-.081-1.147-1.038-10.11-1.038-10.11h-4.398l2.525 13.514c.061.303.02.484-.082.685-.488.927-1.303 1.833-2.28 2.498-.794.564-1.67.926-2.383 1.168l1.161 3.525c.855-.182 2.606-.866 4.113-2.256 1.914-1.773 3.686-4.512 5.498-8.238l5.131-10.896z"/></svg>