<svg xmlns="http://www.w3.org/2000/svg" width="195" height="100" fill="none"><path fill="#181e15" d="M61.816 45.412a13.14 13.14 0 0 0 7.62 2.418v-5.422a7.8 7.8 0 0 1-1.6-.166v4.268c-2.841 0-5.472-.896-7.62-2.418v11.065c0 5.536-4.526 10.023-10.108 10.023a10.1 10.1 0 0 1-5.627-1.695 10.12 10.12 0 0 0 7.227 3.015c5.582 0 10.108-4.487 10.108-10.023zm1.974-5.47a7.53 7.53 0 0 1-1.974-4.425v-.697h-1.517a7.6 7.6 0 0 0 3.491 5.122M48.011 59.237a4.54 4.54 0 0 1-.943-2.776c0-2.531 2.07-4.584 4.624-4.584.476 0 .949.072 1.402.215v-5.544a10 10 0 0 0-1.6-.091v4.315a4.7 4.7 0 0 0-1.403-.215c-2.553 0-4.623 2.053-4.623 4.585a4.58 4.58 0 0 0 2.543 4.095" opacity=".5"/><path fill="#181e15" d="M60.214 44.092a13.14 13.14 0 0 0 7.62 2.418v-4.268a7.67 7.67 0 0 1-4.046-2.3 7.6 7.6 0 0 1-3.49-5.122h-3.985v21.657c-.009 2.525-2.075 4.57-4.623 4.57a4.63 4.63 0 0 1-3.681-1.81 4.58 4.58 0 0 1-2.543-4.095c0-2.532 2.07-4.585 4.623-4.585.49 0 .961.076 1.404.215v-4.315c-5.485.112-9.895 4.556-9.895 10.02 0 2.728 1.098 5.2 2.88 7.008a10.1 10.1 0 0 0 5.628 1.695c5.582 0 10.108-4.487 10.108-10.023z"/><path fill="#181e15" d="M67.837 42.242v-1.154a7.67 7.67 0 0 1-4.046-1.146 7.66 7.66 0 0 0 4.046 2.3M60.3 34.82a8 8 0 0 1-.084-.623V33.5h-5.5v21.657c-.01 2.525-2.075 4.57-4.624 4.57a4.64 4.64 0 0 1-2.08-.49 4.63 4.63 0 0 0 3.68 1.81c2.548 0 4.615-2.045 4.624-4.57V34.82zm-8.805 11.637V45.23q-.69-.094-1.386-.094C44.526 45.135 40 49.622 40 55.157c0 3.47 1.779 6.529 4.481 8.328a9.95 9.95 0 0 1-2.88-7.008c0-5.464 4.41-9.907 9.894-10.02M131.572 60.642c3.995 0 7.233-3.186 7.233-7.117s-3.238-7.117-7.233-7.117h-1.09c3.995 0 7.233 3.187 7.233 7.118 0 3.93-3.238 7.116-7.233 7.116zM130.385 46.408h-1.089c-3.995 0-7.234 3.187-7.234 7.118 0 3.93 3.239 7.116 7.234 7.116h1.089c-3.995 0-7.233-3.186-7.233-7.117s3.238-7.117 7.233-7.117" opacity=".5"/><path fill="#181e15" d="M75.397 43.191V46.8h4.259v13.746h4.261V46.896h3.468l1.188-3.705zm34.874 0V46.8h4.259v13.746h4.262V46.896h3.467l1.189-3.705zm-20.904 2.047c0-1.13.93-2.047 2.079-2.047s2.08.917 2.08 2.047-.93 2.048-2.08 2.048-2.08-.917-2.08-2.047m0 3.51h4.16v11.797h-4.16zm5.943-5.557v17.354h4.162V56.06l1.288-1.171 4.061 5.752h4.458l-5.846-8.384 5.252-5.07h-5.053l-4.16 4.094v-8.09zm44.88 0v17.354h4.162V56.06l1.288-1.171 4.063 5.752h4.458l-5.846-8.384 5.251-5.07h-5.052l-4.162 4.094v-8.09zM130.48 60.642c3.994 0 7.233-3.186 7.233-7.117s-3.239-7.117-7.233-7.117h-.099c-3.994 0-7.233 3.187-7.233 7.118 0 3.93 3.239 7.116 7.233 7.116zm-3.567-7.117c0-1.911 1.576-3.46 3.518-3.46s3.517 1.549 3.517 3.46-1.575 3.462-3.517 3.462-3.518-1.55-3.518-3.462"/></svg>